<?xml version="1.0" standalone="no"?>
<svg viewBox="0 0 200 200" xmlns="http://www.w3.org/2000/svg">
  <path fill="#9EF0F0" d="M39.6,-70.7C47.6,-63.9,47.9,-45.9,50.4,-32.2C52.9,-18.5,57.5,-9.3,63,3.2C68.5,15.6,74.7,31.2,69.6,40.3C64.5,49.3,48,51.9,34.5,58.2C21,64.5,10.5,74.6,-0.1,74.7C-10.6,74.8,-21.2,64.9,-28.6,55.1C-36.1,45.3,-40.3,35.5,-50.4,26.3C-60.5,17.2,-76.5,8.6,-76.7,-0.1C-77,-8.8,-61.4,-17.7,-53.6,-30.8C-45.8,-43.9,-45.6,-61.3,-37.9,-68.3C-30.3,-75.3,-15.1,-72.1,0.3,-72.6C15.8,-73.2,31.6,-77.6,39.6,-70.7Z" transform="translate(100 100)" />
</svg>
