<?xml version="1.0" standalone="no"?>
<svg viewBox="0 0 200 200" xmlns="http://www.w3.org/2000/svg">
  <path fill="#FF0066" d="M14.7,-22.8C22.5,-20.9,34.8,-24,36.1,-21.1C37.3,-18.1,27.6,-9.1,30.1,1.5C32.6,12,47.5,24,46.8,27.9C46.1,31.9,29.9,27.8,19.5,28.4C9.1,29.1,4.6,34.6,0.2,34.3C-4.2,34,-8.4,27.9,-10.4,22.4C-12.4,16.9,-12.3,11.9,-15.1,8.3C-18,4.6,-23.9,2.3,-23.9,0C-23.8,-2.2,-17.7,-4.5,-16.5,-11.1C-15.4,-17.7,-19.1,-28.6,-17.2,-34C-15.2,-39.4,-7.6,-39.3,-2.1,-35.6C3.4,-32,6.8,-24.8,14.7,-22.8Z" transform="translate(100 100)" />
</svg>
